<svg aria-hidden="true" style="width:0;height:0;position:absolute;overflow:hidden" xmlns="http://www.w3.org/2000/svg"><defs><symbol id="icon-twitter" viewBox="0 0 37 32"><path fill="#fff" style="fill:var(--color1,#fff)" d="M33.469 8.284c1.458-1.094 2.771-2.406 3.792-3.938a14.363 14.363 0 0 1-4.375 1.167c1.604-.948 2.771-2.406 3.355-4.229a15.87 15.87 0 0 1-4.705 1.875l-.108.02A7.635 7.635 0 0 0 25.856.774h-.045.002-.001a7.655 7.655 0 0 0-7.655 7.655c0 .583.074 1.167.22 1.75A22.202 22.202 0 0 1 2.583 2.194l-.029-.036c-.657 1.094-1.021 2.406-1.021 3.865a7.536 7.536 0 0 0 3.426 6.345c-1.239-.074-2.479-.365-3.499-.948v.073c0 3.719 2.624 6.782 6.124 7.51-.582.146-1.312.292-1.968.292-.511 0-.948-.074-1.459-.146.949 3.062 3.792 5.25 7.147 5.323-2.625 2.043-5.906 3.282-9.479 3.282-.656 0-1.239-.074-1.823-.146 3.355 2.187 7.364 3.427 11.74 3.427 14.073 0 21.729-11.595 21.729-21.729V8.285z"/></symbol><symbol id="icon-linkedin" viewBox="0 0 32 32"><path fill="#fff" style="fill:var(--color1,#fff)" d="M7.25 32V10.901H.687V32H7.25zM3.933 8.079c2.117 0 3.81-1.764 3.81-3.881 0-2.046-1.694-3.74-3.81-3.74-2.046 0-3.74 1.694-3.74 3.74 0 2.117 1.694 3.881 3.74 3.881zM31.736 32h.071V20.427c0-5.645-1.27-10.02-7.903-10.02-3.175 0-5.292 1.764-6.21 3.387h-.07v-2.893h-6.28V32h6.562V21.556c0-2.752.494-5.363 3.881-5.363s3.458 3.105 3.458 5.575V32h6.492z"/></symbol><symbol id="icon-youtube" viewBox="0 0 45 32"><path fill="#fff" style="fill:var(--color1,#fff)" d="M43.665 5.831c-.486-1.944-2.027-3.484-3.89-3.97C36.292.889 22.519.889 22.519.889s-13.855 0-17.338.972c-1.862.486-3.403 2.027-3.889 3.97C.32 9.232.32 16.525.32 16.525s0 7.211.972 10.695c.486 1.944 2.025 3.401 3.889 3.889C8.665 32 22.519 32 22.519 32s13.773 0 17.256-.891c1.864-.486 3.404-1.944 3.89-3.889.972-3.484.972-10.695.972-10.695s0-7.291-.972-10.694zM17.982 23.087V9.962l11.505 6.562-11.505 6.562z"/></symbol><symbol id="icon-facebook" viewBox="0 0 32 32"><path fill="#fff" style="fill:var(--color1,#fff)" d="M31.5 16.343c0-8.562-6.938-15.5-15.5-15.5S.5 7.781.5 16.343c0 7.75 5.625 14.188 13.062 15.312V20.843H9.624v-4.5h3.938v-3.375c0-3.876 2.313-6.063 5.812-6.063 1.751 0 3.501.313 3.501.313v3.813h-1.938c-1.937 0-2.562 1.187-2.562 2.437v2.875h4.312l-.688 4.5h-3.624v10.812C25.812 30.53 31.5 24.093 31.5 16.343z"/></symbol><symbol id="icon-arrow" viewBox="0 0 15 32"><path fill="#fff" style="fill:var(--color1,#fff)" d="m13.282 17.007-8.054 8.051a1.411 1.411 0 0 1-2.008 0l-1.337-1.337c-.258-.256-.417-.611-.417-1.003s.159-.747.417-1.003l5.708-5.71-5.708-5.708c-.258-.256-.417-.611-.417-1.003s.159-.747.417-1.003L3.215 6.94a1.411 1.411 0 0 1 2.008 0l8.052 8.052c.563.556.563 1.457.007 2.014z"/></symbol><symbol id="icon-logo" viewBox="0 0 36 32"><path fill="#28a745" style="fill:var(--color2,#28a745)" d="M32.891 2.391c-3.324.19-9.931.877-14.009 3.379a.932.932 0 0 0-.442.8v22.11c0 .702.766 1.146 1.412.82 4.196-2.116 10.265-2.693 13.266-2.851 1.025-.053 1.821-.876 1.821-1.863V4.258c0-1.076-.931-1.929-2.049-1.867zm-16.832 3.38C11.981 3.27 5.374 2.583 2.05 2.393.931 2.329 0 3.181 0 4.258v20.529c0 .987.796 1.809 1.821 1.863 3.002.157 9.074.735 13.271 2.853.644.324 1.407-.119 1.407-.819V6.553c0-.33-.175-.62-.437-.781l-.004-.002z"/></symbol></defs></svg>